<?xml version="1.0" standalone="no"?>
<!DOCTYPE svg PUBLIC "-//W3C//DTD SVG 20010904//EN"
 "http://www.w3.org/TR/2001/REC-SVG-20010904/DTD/svg10.dtd">
<svg version="1.0" xmlns="http://www.w3.org/2000/svg"
 width="500.000000pt" height="500.000000pt" viewBox="0 0 500.000000 500.000000"
 preserveAspectRatio="xMidYMid meet">

<g transform="translate(0.000000,500.000000) scale(0.100000,-0.100000)"
fill="#000000" stroke="none">
<path d="M1480 4070 c-30 -11 -71 -19 -91 -20 -82 0 -147 -42 -169 -110 -12
-37 -10 -153 3 -166 11 -11 46 39 59 83 l12 42 39 -36 c50 -45 137 -85 199
-91 l48 -5 0 -49 c0 -35 -9 -66 -31 -110 l-31 -62 21 -42 c15 -32 34 -51 73
-74 29 -16 56 -30 59 -30 3 0 6 51 5 113 -1 106 1 115 27 158 21 35 30 69 38
135 16 141 -9 237 -71 269 -40 20 -124 18 -190 -5z"/>
<path d="M3615 3903 c-35 -9 -120 -71 -151 -110 -54 -67 -58 -81 -59 -193 0
-127 17 -197 52 -211 39 -15 147 -11 169 6 10 8 31 15 46 15 55 0 69 61 42
183 l-6 27 70 0 c81 0 159 22 185 52 10 12 17 37 17 60 0 34 -6 47 -37 76 -21
19 -69 50 -108 68 -58 29 -80 34 -135 33 -36 -1 -74 -4 -85 -6z"/>
<path d="M721 3198 c-12 -24 -15 -34 -7 -23 9 11 23 28 31 38 17 19 19 27 7
27 -5 0 -18 -19 -31 -42z"/>
<path d="M781 3218 c5 -10 9 -24 8 -31 -3 -23 1 -37 11 -37 6 0 10 14 10 30 0
38 16 38 38 0 9 -16 21 -30 26 -30 4 0 -3 19 -17 43 -21 34 -31 42 -55 42 -26
1 -29 -2 -21 -17z"/>
<path d="M1054 3077 c15 -192 19 -227 25 -227 3 0 6 67 6 149 0 138 -1 150
-19 155 -17 4 -18 0 -12 -77z"/>
<path d="M928 3144 c-5 -4 -7 -53 -7 -108 1 -100 2 -100 10 -41 10 67 8 161
-3 149z"/>
<path d="M510 2924 c-13 -32 -13 -80 0 -123 19 -67 62 -68 130 -4 65 62 65 73
-5 73 -49 0 -55 2 -55 21 0 56 -52 81 -70 33z"/>
<path d="M1321 2813 c-94 -44 -214 -83 -258 -83 -45 0 -148 -34 -159 -52 -4
-6 1 -17 10 -24 10 -7 19 -21 20 -31 4 -28 91 -31 108 -4 11 19 23 21 108 21
97 0 208 18 258 42 40 19 43 83 7 127 -15 17 -30 31 -33 30 -4 0 -31 -12 -61
-26z"/>
<path d="M1072 2800 c0 -19 2 -27 5 -17 2 9 2 25 0 35 -3 9 -5 1 -5 -18z"/>
<path d="M2716 2623 c-37 -115 -49 -199 -50 -353 -1 -145 1 -160 26 -226 44
-117 58 -208 58 -372 l0 -149 100 -7 c56 -4 107 -9 115 -13 13 -4 15 -47 15
-269 l0 -264 -24 0 c-27 0 -36 -28 -36 -110 0 -29 -5 -50 -12 -53 -8 -3 -6 -6
5 -6 13 -1 17 7 17 33 0 18 3 54 6 79 6 40 10 46 33 49 l26 3 1 140 c2 203 -2
185 43 185 26 0 41 5 45 16 11 29 6 34 -39 34 l-45 0 0 79 c0 44 4 81 9 83 16
6 53 124 58 189 l6 67 -129 7 c-71 3 -134 8 -140 10 -17 5 -26 80 -13 112 20
51 39 174 39 246 0 146 -66 537 -90 537 -5 0 -15 -21 -24 -47z"/>
<path d="M886 2423 c-22 -77 -61 -288 -60 -328 1 -89 107 -375 126 -341 12 22
11 459 -1 530 -13 74 -40 156 -51 156 -5 0 -11 -8 -14 -17z"/>
<path d="M2204 1758 c-21 -46 -44 -61 -44 -30 0 41 -51 55 -74 20 -8 -13 -8
-23 2 -38 16 -26 16 -27 -13 -34 -18 -5 -34 -23 -55 -66 -27 -54 -28 -60 -14
-75 20 -20 37 -8 67 49 l21 41 9 -35 c20 -78 28 -85 100 -94 37 -5 39 -4 32
21 l-6 25 30 -21 c28 -20 111 -36 111 -21 0 8 -36 40 -79 70 -21 15 -46 23
-65 22 -49 -4 -66 51 -21 68 17 6 33 26 45 56 27 62 26 84 -3 84 -18 0 -28
-10 -43 -42z"/>
<path d="M1625 1760 c-33 -11 -86 -24 -117 -30 -69 -14 -69 -14 -37 -149 l22
-89 50 34 c27 19 53 34 57 34 4 0 10 13 13 29 7 34 34 64 49 55 7 -5 9 5 4 30
-6 32 -4 37 19 48 16 7 25 19 25 35 0 27 -5 27 -85 3z"/>
<path d="M3196 1703 c-28 -290 -9 -543 51 -670 l18 -38 77 0 c73 0 79 2 107
30 l30 30 -14 135 c-8 74 -15 233 -15 353 l0 217 -124 0 -124 0 -6 -57z"/>
<path d="M963 1502 c3 -114 10 -232 16 -262 6 -30 19 -109 31 -175 26 -148 28
-151 70 -136 18 6 43 11 55 11 20 0 23 7 28 58 6 53 -4 214 -19 323 -6 43 -4
47 30 77 l36 31 0 139 0 139 -127 1 -126 0 6 -206z"/>
<path d="M2412 1514 c4 -21 22 -23 26 -1 2 10 -3 17 -13 17 -10 0 -15 -6 -13
-16z"/>
<path d="M1903 1328 c-28 -36 -25 -38 41 -38 64 0 66 1 66 25 0 23 -3 25 -49
25 -27 0 -53 -6 -58 -12z"/>
<path d="M2204 1324 c3 -9 6 -20 6 -25 0 -5 70 -9 160 -9 l160 0 0 25 0 25
-166 0 c-147 0 -165 -2 -160 -16z"/>
<path d="M1511 1294 c0 -11 3 -14 6 -6 3 7 2 16 -1 19 -3 4 -6 -2 -5 -13z"/>
<path d="M2009 1223 c-1 -5 -1 -11 0 -15 0 -5 -4 -7 -9 -5 -6 1 -20 -16 -33
-38 -12 -22 -25 -42 -28 -45 -15 -14 -43 -153 -42 -213 0 -69 12 -104 47 -144
18 -22 27 -23 147 -23 l128 0 35 31 c44 38 56 79 56 186 0 96 -19 155 -71 226
l-34 46 -97 1 c-54 0 -99 -3 -99 -7z m93 -138 c4 -60 12 -120 18 -133 15 -35
12 -77 -7 -94 -20 -18 -104 -48 -133 -48 -40 0 -53 28 -45 104 13 139 33 204
77 248 26 26 46 38 61 36 21 -3 22 -10 29 -113z m125 26 c32 -61 31 -151 -3
-151 -23 0 -47 61 -52 133 -4 63 -3 69 13 66 10 -2 29 -24 42 -48z"/>
<path d="M1265 1060 c-12 -13 -5 -15 58 -16 186 -2 257 -25 238 -76 -9 -23 -9
-23 -191 -20 -192 3 -210 0 -210 -42 0 -40 30 -46 248 -53 114 -3 228 -3 254
1 l46 7 -2 39 c-6 73 -68 136 -157 160 -24 7 -95 13 -157 14 -90 1 -116 -2
-127 -14z"/>
<path d="M2543 1054 c10 -11 127 -22 127 -12 0 4 -15 8 -34 8 -18 0 -49 3 -67
6 -19 4 -30 3 -26 -2z"/>
<path d="M2715 870 c27 -12 43 -12 25 0 -8 5 -22 9 -30 9 -10 0 -8 -3 5 -9z"/>
<path d="M2770 850 c8 -5 20 -10 25 -10 6 0 3 5 -5 10 -8 5 -19 10 -25 10 -5
0 -3 -5 5 -10z"/>
<path d="M2825 830 c3 -5 11 -10 16 -10 6 0 7 5 4 10 -3 6 -11 10 -16 10 -6 0
-7 -4 -4 -10z"/>
</g>
</svg>
